<svg version="1.1" id="Layer_1" xmlns="http://www.w3.org/2000/svg" xmlns:xlink="http://www.w3.org/1999/xlink" x="0px" y="0px"
	 width="100%" viewBox="0 0 261 227" enable-background="new 0 0 261 227" xml:space="preserve">
<path fill="#000000" opacity="1.000000" stroke="none" 
	d="
M1.000000,88.000000 
	C1.000000,58.666676 1.000000,29.833351 1.000000,1.000019 
	C87.999969,1.000013 174.999939,1.000013 261.999939,1.000006 
	C261.999939,76.666611 261.999939,152.333221 261.999969,227.999878 
	C175.000076,227.999908 88.000168,227.999908 1.000124,227.999954 
	C1.000000,181.500000 1.000000,135.000000 1.000000,88.000000 
M112.001648,203.998169 
	C112.001648,203.998169 111.979935,204.005295 112.165771,204.477631 
	C112.443871,204.657166 112.721970,204.836685 113.240845,205.543076 
	C113.828667,206.026276 114.416489,206.509491 115.074310,207.682510 
	C117.045715,209.466248 119.017128,211.249969 121.218529,213.553741 
	C121.787231,214.042618 122.355942,214.531479 123.108780,215.494751 
	C123.405678,215.611176 123.702568,215.727600 124.658760,215.919312 
	C125.100220,215.948029 125.541687,215.976746 126.530098,216.651459 
	C140.150528,216.752380 153.770920,216.863815 167.391541,216.916336 
	C167.943192,216.918457 168.496979,216.364456 169.918518,215.985947 
	C171.953217,215.925079 173.987900,215.864212 176.496597,215.897110 
	C176.496597,215.897110 176.973282,215.818146 177.809525,215.927719 
	C179.211014,215.877045 180.612503,215.826370 182.481186,215.746506 
	C182.771240,215.579056 182.948288,215.330917 182.999390,214.999390 
	C182.999390,214.999390 183.004181,215.011398 183.598480,214.753510 
	C183.403610,213.186035 183.208740,211.618546 182.786179,209.577469 
	C182.505905,209.375137 182.225632,209.172806 181.779648,208.524170 
	C181.586761,208.248703 181.325104,208.079651 181.001221,207.999390 
	C181.001221,207.999390 180.983719,208.005783 180.817947,207.533295 
	C180.552536,207.340118 180.287125,207.146927 179.998428,206.998978 
	C179.998428,206.998978 180.045197,206.978928 179.885498,206.481094 
	C179.592529,206.314102 179.299561,206.147095 179.000412,206.002640 
	C179.000412,206.002640 179.021683,205.991852 178.792908,205.564102 
	C178.591034,205.291092 178.323868,205.120117 178.005325,204.999741 
	C178.005325,204.999741 177.952698,205.007935 177.807053,204.532150 
	C177.616852,204.238617 177.352264,204.048615 176.738892,203.355148 
	C173.431519,200.142685 170.047012,197.005341 166.831116,193.703766 
	C156.980331,183.590622 147.383713,173.218964 137.252060,163.397812 
	C134.664902,160.889954 134.699463,159.742157 136.830124,157.507553 
	C139.221603,154.999359 141.298553,152.182266 143.763702,149.754807 
	C156.894180,136.825073 170.131119,124.003342 183.237366,111.049278 
	C184.397263,109.902840 185.544205,108.026978 185.442245,106.578209 
	C185.376968,105.650574 183.064453,104.290428 181.657730,104.151222 
	C175.897385,103.581200 170.100983,103.220276 164.312302,103.127548 
	C155.081635,102.979691 145.826645,102.746292 136.620850,103.254242 
	C131.166611,103.555183 124.543701,103.591766 120.634613,106.595314 
	C112.673943,112.711876 106.195084,120.756996 98.607361,128.273804 
	C98.253242,128.707153 97.899124,129.140488 96.991905,129.932602 
	C88.257187,138.604416 79.482529,147.236542 70.805458,155.965652 
	C66.781654,160.013580 67.536819,162.611176 73.191124,164.881439 
	C73.191124,164.881439 73.215660,164.826172 73.130020,165.544556 
	C75.973694,168.106461 78.817360,170.668381 81.736427,173.261139 
	C81.736427,173.261139 81.774467,173.333160 81.798965,174.054932 
	C85.087715,177.112228 88.376472,180.169540 91.738480,183.266144 
	C91.738480,183.266144 91.768860,183.343536 91.839546,183.981201 
	C92.809029,184.722855 93.778503,185.464493 95.260544,186.596069 
	C96.277962,187.639114 97.295372,188.682175 98.232208,190.350601 
	C98.821274,190.935883 99.410339,191.521179 100.283295,192.667801 
	C101.520836,193.783264 102.758377,194.898712 104.275635,196.562790 
	C105.189529,197.372833 106.103432,198.182877 107.178558,199.470016 
	C107.451698,199.652435 107.724846,199.834854 108.250359,200.575241 
	C109.152481,201.387054 110.054604,202.198853 111.158279,203.478104 
	C111.437202,203.658768 111.716125,203.839447 112.001648,203.998169 
M123.083397,11.093845 
	C122.405708,11.558624 121.632065,11.928353 121.064072,12.501785 
	C89.670990,44.195480 58.277607,75.888939 26.938431,107.635895 
	C22.753761,111.875023 22.932020,115.337669 27.232397,119.681374 
	C33.560284,126.073006 39.944920,132.408463 46.308353,138.764877 
	C53.004250,145.453384 56.118969,145.472763 62.756748,138.657623 
	C72.105576,129.059021 81.282578,119.291130 90.720039,109.781181 
	C109.701286,90.654152 128.808685,71.652328 147.864410,52.599224 
	C159.835876,40.629417 171.815414,28.667660 183.768494,16.679541 
	C184.968857,15.475656 186.010880,14.113874 188.091049,11.711107 
	C183.694519,11.009632 180.688843,10.140693 177.675781,10.114296 
	C161.519760,9.972764 145.361771,10.012750 129.204819,10.077296 
	C127.427666,10.084395 125.652748,10.648046 123.083397,11.093845 
z"/>
<path fill="#FBFCFC" opacity="1.000000" stroke="none" 
	d="
M98.312790,189.725250 
	C97.295372,188.682175 96.277962,187.639114 95.068756,186.058319 
	C93.840927,184.794876 92.804893,184.069214 91.768860,183.343536 
	C91.768860,183.343536 91.738480,183.266144 91.789444,182.908661 
	C88.485092,179.478485 85.129784,176.405823 81.774467,173.333160 
	C81.774467,173.333160 81.736427,173.261139 81.771027,172.908997 
	C78.942307,169.979965 76.078979,167.403076 73.215660,164.826172 
	C73.215660,164.826172 73.191124,164.881439 73.164520,164.479950 
	C69.760902,161.141327 70.214233,158.732117 73.463135,155.691666 
	C81.764511,147.922913 89.733063,139.798508 98.219772,131.826996 
	C99.835014,131.432388 101.065224,131.027130 102.299698,130.654449 
	C102.303963,130.687012 102.367638,130.703201 102.275101,131.054077 
	C106.094719,135.297150 110.006889,139.189346 114.007019,143.408493 
	C118.278885,148.185684 122.325607,152.776657 126.695351,157.036270 
	C129.564392,159.832993 129.329086,161.485413 126.294449,164.151703 
	C123.347443,166.740997 121.333031,170.391724 118.703697,173.838638 
	C117.401581,175.408463 116.304840,176.716003 114.884171,178.142349 
	C111.555908,180.961624 108.551575,183.662094 105.215012,186.388000 
	C104.705894,186.790695 104.529015,187.167969 104.253326,187.783188 
	C103.774796,188.348923 103.395058,188.676712 102.681000,188.977783 
	C101.563805,189.288696 100.780930,189.626297 99.715469,189.882599 
	C99.059509,189.775955 98.686150,189.750595 98.312790,189.725250 
z"/>
<path fill="#194078" opacity="1.000000" stroke="none" 
	d="
M123.480095,11.023706 
	C125.652748,10.648046 127.427666,10.084395 129.204819,10.077296 
	C145.361771,10.012750 161.519760,9.972764 177.675781,10.114296 
	C180.688843,10.140693 183.694519,11.009632 188.091049,11.711107 
	C186.010880,14.113874 184.968857,15.475656 183.768494,16.679541 
	C171.815414,28.667660 159.835876,40.629417 147.864410,52.599224 
	C128.808685,71.652328 109.701286,90.654152 90.720039,109.781181 
	C81.282578,119.291130 72.105576,129.059021 62.756748,138.657623 
	C56.118969,145.472763 53.004250,145.453384 46.308353,138.764877 
	C39.944920,132.408463 33.560284,126.073006 27.232397,119.681374 
	C22.932020,115.337669 22.753761,111.875023 26.938431,107.635895 
	C58.277607,75.888939 89.670990,44.195480 121.064072,12.501785 
	C121.632065,11.928353 122.405708,11.558624 123.480095,11.023706 
M67.534874,128.965225 
	C75.456207,121.046150 83.440849,113.189140 91.282463,105.191902 
	C100.570358,95.719673 109.599312,85.990608 118.988304,76.621185 
	C130.025085,65.607399 141.373779,54.906933 152.500641,43.982403 
	C161.122406,35.517414 169.638947,26.944363 178.127853,18.345890 
	C179.350250,17.107704 180.154877,15.457066 181.667755,13.244132 
	C178.912613,13.109815 177.441681,12.977022 175.970642,12.975813 
	C160.807800,12.963354 145.643402,13.088856 130.483170,12.891026 
	C126.804474,12.843021 124.293053,14.057018 121.768234,16.611801 
	C105.811607,32.757774 89.712654,48.763096 73.660393,64.814552 
	C59.100407,79.373802 44.610348,94.004204 29.926624,108.437576 
	C26.577639,111.729462 26.288103,114.059166 29.799923,117.472725 
	C36.651855,124.132942 43.002861,131.306335 49.793171,138.033173 
	C52.421074,140.636490 55.599522,141.126297 58.569397,137.982376 
	C61.314442,135.076462 64.204010,132.307068 67.534874,128.965225 
z"/>
<path fill="#154384" opacity="1.000000" stroke="none" 
	d="
M115.004311,206.992706 
	C114.416489,206.509491 113.828667,206.026276 113.013687,205.054184 
	C112.583519,204.283783 112.314659,204.097107 111.979935,204.005295 
	C111.979935,204.005295 112.001648,203.998169 111.890625,203.781158 
	C111.505310,203.379654 111.231010,203.195160 110.956718,203.010651 
	C110.054604,202.198853 109.152481,201.387054 108.022598,200.072510 
	C107.600357,199.290329 107.341187,199.098038 107.017326,198.992920 
	C106.103432,198.182877 105.189529,197.372833 104.137589,195.887421 
	C104.068001,192.940567 103.491013,190.294022 106.971725,190.372528 
	C107.054138,192.066162 106.653015,193.910110 107.384483,194.685120 
	C111.891266,199.460220 116.557114,204.097733 121.363861,208.572845 
	C124.718643,211.696136 128.554886,213.288528 133.509201,213.147736 
	C146.825821,212.769302 160.160339,213.030579 173.487686,213.006485 
	C175.221130,213.003357 176.954254,212.816025 180.020523,212.635574 
	C178.083588,210.179398 177.065781,208.594971 175.767883,207.288895 
	C164.260101,195.708389 152.600143,184.276962 141.219131,172.573914 
	C137.551682,168.802689 134.727066,164.078278 128.483734,165.479492 
	C130.190765,163.000015 133.581039,161.452072 131.051208,157.659912 
	C131.362900,156.909714 131.646881,156.444641 132.280228,155.955017 
	C140.675354,148.106354 148.734619,140.296036 156.760757,132.451828 
	C160.389023,128.905823 163.963486,125.304405 167.540588,121.706497 
	C171.756454,117.466080 175.948761,113.202232 181.070511,108.018097 
	C178.131744,107.514877 176.601181,107.030312 175.068909,107.024826 
	C159.759552,106.970108 144.447556,106.859230 129.142731,107.129204 
	C126.592461,107.174194 123.547348,108.380928 121.639412,110.074387 
	C116.210037,114.893448 111.155136,120.152527 106.188774,125.459236 
	C105.241539,126.471375 105.373466,128.493469 104.852722,130.289108 
	C104.381157,130.737671 104.064362,130.946732 103.511566,131.088455 
	C103.014847,130.795425 102.712204,130.689453 102.367638,130.703201 
	C102.367638,130.703201 102.303963,130.687012 102.232414,130.360077 
	C101.468575,129.707932 100.776283,129.382706 99.974701,128.837250 
	C99.665024,128.347946 99.411774,128.144775 99.105675,128.007492 
	C106.195084,120.756996 112.673943,112.711876 120.634613,106.595314 
	C124.543701,103.591766 131.166611,103.555183 136.620850,103.254242 
	C145.826645,102.746292 155.081635,102.979691 164.312302,103.127548 
	C170.100983,103.220276 175.897385,103.581200 181.657730,104.151222 
	C183.064453,104.290428 185.376968,105.650574 185.442245,106.578209 
	C185.544205,108.026978 184.397263,109.902840 183.237366,111.049278 
	C170.131119,124.003342 156.894180,136.825073 143.763702,149.754807 
	C141.298553,152.182266 139.221603,154.999359 136.830124,157.507553 
	C134.699463,159.742157 134.664902,160.889954 137.252060,163.397812 
	C147.383713,173.218964 156.980331,183.590622 166.831116,193.703766 
	C170.047012,197.005341 173.431519,200.142685 176.966049,203.886246 
	C177.377090,204.703293 177.630264,204.900146 177.952698,205.007935 
	C177.952698,205.007935 178.005325,204.999741 178.109650,205.240601 
	C178.421600,205.749054 178.690842,205.919189 179.021683,205.991852 
	C179.021683,205.991852 179.000412,206.002640 179.112610,206.217072 
	C179.498276,206.613998 179.771744,206.796463 180.045197,206.978928 
	C180.045197,206.978928 179.998428,206.998978 180.100754,207.208099 
	C180.392166,207.707748 180.652374,207.903931 180.983719,208.005783 
	C180.983719,208.005783 181.001221,207.999390 181.098877,208.219086 
	C181.382858,208.705185 181.632477,208.882401 181.945374,208.970459 
	C182.225632,209.172806 182.505905,209.375137 182.893005,210.225983 
	C183.001266,212.253448 183.002716,213.632431 183.004181,215.011398 
	C183.004181,215.011398 182.999390,214.999390 182.801086,215.075394 
	C182.341827,215.298508 182.145569,215.506607 182.013992,215.775696 
	C180.612503,215.826370 179.211014,215.877045 177.300552,215.740143 
	C176.469193,215.367783 176.212860,215.451370 176.022598,215.803345 
	C173.987900,215.864212 171.953217,215.925079 169.190170,215.721558 
	C154.864868,215.327454 141.267960,215.186386 127.670715,215.108337 
	C127.109924,215.105118 126.545746,215.692978 125.983147,216.005463 
	C125.541687,215.976746 125.100220,215.948029 124.199097,215.687653 
	C123.517838,215.217270 123.246239,215.072067 122.924644,215.020355 
	C122.355942,214.531479 121.787231,214.042618 121.073456,212.944870 
	C118.953690,210.554901 116.978996,208.773804 115.004311,206.992706 
z"/>
<path fill="#606671" opacity="1.000000" stroke="none" 
	d="
M97.834740,131.816360 
	C89.733063,139.798508 81.764511,147.922913 73.463135,155.691666 
	C70.214233,158.732117 69.760902,161.141327 73.146126,164.455963 
	C67.536819,162.611176 66.781654,160.013580 70.805458,155.965652 
	C79.482529,147.236542 88.257187,138.604416 97.414032,129.892380 
	C97.836159,129.852158 98.126045,130.125931 98.053970,130.404388 
	C97.932854,131.060669 97.883797,131.438522 97.834740,131.816360 
z"/>
<path fill="#204372" opacity="1.000000" stroke="none" 
	d="
M126.256622,216.328461 
	C126.545746,215.692978 127.109924,215.105118 127.670715,215.108337 
	C141.267960,215.186386 154.864868,215.327454 168.755798,215.763367 
	C168.496979,216.364456 167.943192,216.918457 167.391541,216.916336 
	C153.770920,216.863815 140.150528,216.752380 126.256622,216.328461 
z"/>
<path fill="#204372" opacity="1.000000" stroke="none" 
	d="
M107.011711,190.028763 
	C103.491013,190.294022 104.068001,192.940567 103.997734,195.613098 
	C102.758377,194.898712 101.520836,193.783264 100.166473,192.112778 
	C100.041214,191.374390 100.032776,191.191010 100.358994,191.017761 
	C101.467545,190.353409 102.241440,189.678955 103.015327,189.004501 
	C103.395058,188.676712 103.774796,188.348923 104.547409,187.700256 
	C105.142609,187.040451 105.344925,186.701508 105.547241,186.362564 
	C108.551575,183.662094 111.555908,180.961624 115.184814,178.192841 
	C115.654869,179.131485 115.822548,180.374649 115.288338,181.103165 
	C113.306984,183.805176 111.094406,186.337616 108.809631,189.184387 
	C108.104301,189.632950 107.558006,189.830856 107.011711,190.028763 
z"/>
<path fill="#6F7480" opacity="1.000000" stroke="none" 
	d="
M81.786713,173.694046 
	C85.129784,176.405823 88.485092,179.478485 91.752808,182.889008 
	C88.376472,180.169540 85.087715,177.112228 81.786713,173.694046 
z"/>
<path fill="#6F7480" opacity="1.000000" stroke="none" 
	d="
M73.172836,165.185364 
	C76.078979,167.403076 78.942307,169.979965 81.733337,172.893570 
	C78.817360,170.668381 75.973694,168.106461 73.172836,165.185364 
z"/>
<path fill="#204372" opacity="1.000000" stroke="none" 
	d="
M115.039307,207.337616 
	C116.978996,208.773804 118.953690,210.554901 120.958466,212.684845 
	C119.017128,211.249969 117.045715,209.466248 115.039307,207.337616 
z"/>
<path fill="#6F7480" opacity="1.000000" stroke="none" 
	d="
M91.804199,183.662369 
	C92.804893,184.069214 93.840927,184.794876 94.812469,185.863342 
	C93.778503,185.464493 92.809029,184.722855 91.804199,183.662369 
z"/>
<path fill="#204372" opacity="1.000000" stroke="none" 
	d="
M183.301331,214.882446 
	C183.002716,213.632431 183.001266,212.253448 183.006836,210.462769 
	C183.208740,211.618546 183.403610,213.186035 183.301331,214.882446 
z"/>
<path fill="#606671" opacity="1.000000" stroke="none" 
	d="
M98.856522,128.140656 
	C99.411774,128.144775 99.665024,128.347946 99.764839,129.029297 
	C99.151520,129.669693 98.638779,129.897812 98.126045,130.125931 
	C98.126045,130.125931 97.836159,129.852158 97.690582,129.712997 
	C97.899124,129.140488 98.253242,128.707153 98.856522,128.140656 
z"/>
<path fill="#6F7480" opacity="1.000000" stroke="none" 
	d="
M100.024338,191.007645 
	C100.032776,191.191010 100.041214,191.374390 100.024521,191.832108 
	C99.410339,191.521179 98.821274,190.935883 98.272491,190.037933 
	C98.686150,189.750595 99.059509,189.775955 99.732574,190.143326 
	C100.029617,190.659439 100.026978,190.833542 100.024338,191.007645 
z"/>
<path fill="#204372" opacity="1.000000" stroke="none" 
	d="
M182.247589,215.761108 
	C182.145569,215.506607 182.341827,215.298508 182.807556,215.076752 
	C182.948288,215.330917 182.771240,215.579056 182.247589,215.761108 
z"/>
<path fill="#204372" opacity="1.000000" stroke="none" 
	d="
M176.259598,215.850220 
	C176.212860,215.451370 176.469193,215.367783 176.882431,215.685364 
	C176.973282,215.818146 176.496597,215.897110 176.259598,215.850220 
z"/>
<path fill="#204372" opacity="1.000000" stroke="none" 
	d="
M123.016708,215.257553 
	C123.246239,215.072067 123.517838,215.217270 123.869446,215.650009 
	C123.702568,215.727600 123.405678,215.611176 123.016708,215.257553 
z"/>
<path fill="#204372" opacity="1.000000" stroke="none" 
	d="
M181.862518,208.747314 
	C181.632477,208.882401 181.382858,208.705185 181.095581,208.227905 
	C181.325104,208.079651 181.586761,208.248703 181.862518,208.747314 
z"/>
<path fill="#204372" opacity="1.000000" stroke="none" 
	d="
M180.900833,207.769531 
	C180.652374,207.903931 180.392166,207.707748 180.112396,207.185486 
	C180.287125,207.146927 180.552536,207.340118 180.900833,207.769531 
z"/>
<path fill="#204372" opacity="1.000000" stroke="none" 
	d="
M179.965347,206.730011 
	C179.771744,206.796463 179.498276,206.613998 179.115707,206.205811 
	C179.299561,206.147095 179.592529,206.314102 179.965347,206.730011 
z"/>
<path fill="#204372" opacity="1.000000" stroke="none" 
	d="
M178.907288,205.777985 
	C178.690842,205.919189 178.421600,205.749054 178.102692,205.266296 
	C178.323868,205.120117 178.591034,205.291092 178.907288,205.777985 
z"/>
<path fill="#204372" opacity="1.000000" stroke="none" 
	d="
M177.879883,204.770050 
	C177.630264,204.900146 177.377090,204.703293 177.103241,204.189743 
	C177.352264,204.048615 177.616852,204.238617 177.879883,204.770050 
z"/>
<path fill="#204372" opacity="1.000000" stroke="none" 
	d="
M112.072853,204.241455 
	C112.314659,204.097107 112.583519,204.283783 112.893295,204.790741 
	C112.721970,204.836685 112.443871,204.657166 112.072853,204.241455 
z"/>
<path fill="#204372" opacity="1.000000" stroke="none" 
	d="
M111.057495,203.244385 
	C111.231010,203.195160 111.505310,203.379654 111.887321,203.792114 
	C111.716125,203.839447 111.437202,203.658768 111.057495,203.244385 
z"/>
<path fill="#204372" opacity="1.000000" stroke="none" 
	d="
M107.097946,199.231476 
	C107.341187,199.098038 107.600357,199.290329 107.896408,199.793533 
	C107.724846,199.834854 107.451698,199.652435 107.097946,199.231476 
z"/>
<path fill="#B3CDE7" opacity="1.000000" stroke="none" 
	d="
M131.023514,157.945053 
	C133.581039,161.452072 130.190765,163.000015 128.348114,165.511169 
	C127.857552,165.989059 127.798546,166.158417 127.519844,166.532715 
	C126.938316,167.358078 126.707932,168.024612 126.473770,168.705887 
	C126.469994,168.720627 126.443031,168.702942 126.104904,168.569839 
	C123.480881,170.149933 121.194984,171.863144 118.909081,173.576340 
	C121.333031,170.391724 123.347443,166.740997 126.294449,164.151703 
	C129.329086,161.485413 129.564392,159.832993 126.695351,157.036270 
	C122.325607,152.776657 118.278885,148.185684 114.153015,143.259094 
	C114.211052,142.782761 114.501869,142.484467 114.790405,142.645187 
	C120.393806,147.852295 125.708656,152.898682 131.023514,157.945053 
z"/>
<path fill="#154384" opacity="1.000000" stroke="none" 
	d="
M118.703697,173.838638 
	C121.194984,171.863144 123.480881,170.149933 126.212715,168.908722 
	C123.966141,173.814255 121.747849,178.653168 118.421310,182.544769 
	C116.039177,185.331543 112.172821,186.849625 108.968674,188.933746 
	C111.094406,186.337616 113.306984,183.805176 115.288338,181.103165 
	C115.822548,180.374649 115.654869,179.131485 115.508736,178.074036 
	C116.304840,176.716003 117.401581,175.408463 118.703697,173.838638 
M118.482246,177.577881 
	C118.482246,177.577881 118.424377,177.477798 118.482246,177.577881 
z"/>
<path fill="#B3CDE7" opacity="1.000000" stroke="none" 
	d="
M102.275101,131.054077 
	C102.712204,130.689453 103.014847,130.795425 103.691330,131.373672 
	C106.930824,134.271164 109.754555,136.816101 112.628830,139.345551 
	C112.679375,139.330078 112.639114,139.427826 112.693260,139.720612 
	C113.332230,140.837097 113.917046,141.660782 114.501862,142.484467 
	C114.501869,142.484467 114.211052,142.782761 114.065048,142.932159 
	C110.006889,139.189346 106.094719,135.297150 102.275101,131.054077 
z"/>
<path fill="#B3CDE7" opacity="1.000000" stroke="none" 
	d="
M98.053970,130.404388 
	C98.638779,129.897812 99.151520,129.669693 99.874123,129.249527 
	C100.776283,129.382706 101.468575,129.707932 102.228149,130.327515 
	C101.065224,131.027130 99.835014,131.432388 98.219772,131.826996 
	C97.883797,131.438522 97.932854,131.060669 98.053970,130.404388 
z"/>
<path fill="#C7D5E5" opacity="1.000000" stroke="none" 
	d="
M100.358994,191.017761 
	C100.026978,190.833542 100.029617,190.659439 100.015160,190.224609 
	C100.780930,189.626297 101.563805,189.288696 102.681007,188.977783 
	C102.241440,189.678955 101.467545,190.353409 100.358994,191.017761 
z"/>
<path fill="#C7D5E5" opacity="1.000000" stroke="none" 
	d="
M105.215012,186.388000 
	C105.344925,186.701508 105.142609,187.040451 104.646210,187.462311 
	C104.529015,187.167969 104.705894,186.790695 105.215012,186.388000 
z"/>
<path fill="#0249AB" opacity="1.000000" stroke="none" 
	d="
M67.282394,129.221375 
	C64.204010,132.307068 61.314442,135.076462 58.569397,137.982376 
	C55.599522,141.126297 52.421074,140.636490 49.793171,138.033173 
	C43.002861,131.306335 36.651855,124.132942 29.799923,117.472725 
	C26.288103,114.059166 26.577639,111.729462 29.926624,108.437576 
	C44.610348,94.004204 59.100407,79.373802 73.660393,64.814552 
	C89.712654,48.763096 105.811607,32.757774 121.768234,16.611801 
	C124.293053,14.057018 126.804474,12.843021 130.483170,12.891026 
	C145.643402,13.088856 160.807800,12.963354 175.970642,12.975813 
	C177.441681,12.977022 178.912613,13.109815 181.667755,13.244132 
	C180.154877,15.457066 179.350250,17.107704 178.127853,18.345890 
	C169.638947,26.944363 161.122406,35.517414 152.500641,43.982403 
	C141.373779,54.906933 130.025085,65.607399 118.988304,76.621185 
	C109.599312,85.990608 100.570358,95.719673 91.282463,105.191902 
	C83.440849,113.189140 75.456207,121.046150 67.282394,129.221375 
z"/>
<path fill="#024AAC" opacity="1.000000" stroke="none" 
	d="
M105.007500,130.049591 
	C105.373466,128.493469 105.241539,126.471375 106.188774,125.459236 
	C111.155136,120.152527 116.210037,114.893448 121.639412,110.074387 
	C123.547348,108.380928 126.592461,107.174194 129.142731,107.129204 
	C144.447556,106.859230 159.759552,106.970108 175.068909,107.024826 
	C176.601181,107.030312 178.131744,107.514877 181.070511,108.018097 
	C175.948761,113.202232 171.756454,117.466080 167.540588,121.706497 
	C163.963486,125.304405 160.389023,128.905823 156.760757,132.451828 
	C148.734619,140.296036 140.675354,148.106354 132.095520,155.685944 
	C127.084717,150.848328 122.726570,146.129028 118.056625,141.741592 
	C116.712563,140.478836 114.469826,140.172607 112.639114,139.427826 
	C112.639114,139.427826 112.679375,139.330078 112.741081,138.976868 
	C110.204361,135.765640 107.605927,132.907608 105.007500,130.049591 
z"/>
<path fill="#0249AB" opacity="1.000000" stroke="none" 
	d="
M108.809639,189.184387 
	C112.172821,186.849625 116.039177,185.331543 118.421310,182.544769 
	C121.747849,178.653168 123.966141,173.814255 126.550842,169.041809 
	C126.443031,168.702942 126.469994,168.720627 126.868042,168.635712 
	C127.467720,167.825150 127.669357,167.099518 127.870987,166.373871 
	C127.798546,166.158417 127.857552,165.989059 128.183624,165.834106 
	C134.727066,164.078278 137.551682,168.802689 141.219131,172.573914 
	C152.600143,184.276962 164.260101,195.708389 175.767883,207.288895 
	C177.065781,208.594971 178.083588,210.179398 180.020523,212.635574 
	C176.954254,212.816025 175.221130,213.003357 173.487686,213.006485 
	C160.160339,213.030579 146.825821,212.769302 133.509201,213.147736 
	C128.554886,213.288528 124.718643,211.696136 121.363861,208.572845 
	C116.557114,204.097733 111.891266,199.460220 107.384483,194.685120 
	C106.653015,193.910110 107.054138,192.066162 106.971725,190.372528 
	C107.558006,189.830856 108.104301,189.632950 108.809639,189.184387 
z"/>
<path fill="#23569B" opacity="1.000000" stroke="none" 
	d="
M112.693260,139.720612 
	C114.469826,140.172607 116.712563,140.478836 118.056625,141.741592 
	C122.726570,146.129028 127.084717,150.848328 131.746155,155.710480 
	C131.646881,156.444641 131.362900,156.909714 131.051208,157.659912 
	C125.708656,152.898682 120.393806,147.852295 114.790405,142.645187 
	C113.917046,141.660782 113.332230,140.837097 112.693260,139.720612 
z"/>
<path fill="#23569B" opacity="1.000000" stroke="none" 
	d="
M104.852722,130.289108 
	C107.605927,132.907608 110.204361,135.765640 112.690536,138.992340 
	C109.754555,136.816101 106.930824,134.271164 103.927338,131.440994 
	C104.064362,130.946732 104.381157,130.737671 104.852722,130.289108 
z"/>
<path fill="#154384" opacity="1.000000" stroke="none" 
	d="
M127.519844,166.532715 
	C127.669357,167.099518 127.467720,167.825150 126.871811,168.620972 
	C126.707932,168.024612 126.938316,167.358078 127.519844,166.532715 
z"/>
<path fill="#204372" opacity="1.000000" stroke="none" 
	d="
M118.453308,177.527832 
	C118.424377,177.477798 118.482246,177.577881 118.453308,177.527832 
z"/>
</svg>